<svg xmlns="http://www.w3.org/2000/svg" width="9" height="214" viewBox="0 0 9 214">
  <g id="Color_Stripe" data-name="Color Stripe" transform="translate(9 -0.453) rotate(90)">
    <path id="sky_blue" data-name="sky blue" d="M4.5,0H72a0,0,0,0,1,0,0V9a0,0,0,0,1,0,0H4.5A4.5,4.5,0,0,1,0,4.5v0A4.5,4.5,0,0,1,4.5,0Z" transform="translate(0.453)" fill="#09abeb"/>
    <path id="orange" d="M0,9H71.156V0H0Z" transform="translate(71.659)" fill="#f46718"/>
    <path id="yellow" d="M0,0H67.5A4.5,4.5,0,0,1,72,4.5v0A4.5,4.5,0,0,1,67.5,9H0A0,0,0,0,1,0,9V0A0,0,0,0,1,0,0Z" transform="translate(142.453)" fill="#fdc51a"/>
  </g>
</svg>
