<svg xmlns="http://www.w3.org/2000/svg" xmlns:xlink="http://www.w3.org/1999/xlink" width="100" height="100" viewBox="0 0 100 100">
  <defs>
    <clipPath id="clip-path">
      <rect id="Rectangle_192" data-name="Rectangle 192" width="72.162" height="45.309" fill="none"/>
    </clipPath>
  </defs>
  <g id="custom-power-apps-icon-100px" transform="translate(-436 -1573)">
    <path id="Bg" d="M50,0A50,50,0,1,1,0,50,50,50,0,0,1,50,0Z" transform="translate(436 1573)" fill="#a23093"/>
    <g id="Group_1289" data-name="Group 1289" transform="translate(449.919 1600.461)">
      <path id="Path_407" data-name="Path 407" d="M21.715,0,0,20.867v3.748L21.715,45.25V41.284L2.4,22.718,21.715,3.874Z" transform="translate(0 0)" fill="#fff"/>
      <path id="Path_408" data-name="Path 408" d="M60.319,3.944,79.634,22.788,60.319,41.353V45.32L82.035,24.684V20.936L60.319.07Z" transform="translate(-9.873 -0.011)" fill="#fff"/>
      <g id="Group_1288" data-name="Group 1288" transform="translate(0 0)">
        <g id="Group_1287" data-name="Group 1287" clip-path="url(#clip-path)">
          <path id="Path_423" data-name="Path 423" d="M17.3,0,1,43.8" transform="translate(27.509 0.785)" fill="none" stroke="#fff" stroke-width="3"/>
        </g>
      </g>
    </g>
  </g>
</svg>
