<svg xmlns="http://www.w3.org/2000/svg" width="22.668" height="15.301" viewBox="0 0 22.668 15.301">
  <path id="email-icon" d="M.072,18.014V5.423q0-.022.066-.415l7.41,6.339-7.388,7.1a1.853,1.853,0,0,1-.087-.437ZM1.056,4.134a.942.942,0,0,1,.372-.066H21.385a1.238,1.238,0,0,1,.393.066l-7.432,6.361-.984.787-1.945,1.6-1.945-1.6-.984-.787ZM1.078,19.3l7.454-7.148,2.885,2.339L14.3,12.156,21.756,19.3a1.05,1.05,0,0,1-.372.066H1.427a.99.99,0,0,1-.35-.066Zm14.209-7.957,7.388-6.339a1.3,1.3,0,0,1,.066.415V18.014a1.675,1.675,0,0,1-.066.437Z" transform="translate(-0.072 -4.068)" fill="#fff"/>
</svg>
