<svg xmlns="http://www.w3.org/2000/svg" width="109.5" height="97.333" viewBox="0 0 109.5 97.333">
  <g id="intelligent-icon" fill="none">
    <path d="M39.542,0A12.131,12.131,0,0,0,27.793,9.163c-.152,0-.266-.038-.418-.038A12.178,12.178,0,0,0,15.208,21.292a11.211,11.211,0,0,0,.323,2.661,15.077,15.077,0,0,0-7.87,20.7A15.152,15.152,0,0,0,9.391,71.84a13.931,13.931,0,0,0-.266,2.68A13.679,13.679,0,0,0,22.813,88.208a12.889,12.889,0,0,0,2.281-.228,13.655,13.655,0,0,0,26.615-4.334V12.167A12.178,12.178,0,0,0,39.542,0ZM109.5,57.792a15.129,15.129,0,0,0-7.661-13.136,14.962,14.962,0,0,0,1.578-6.635,15.208,15.208,0,0,0-9.448-14.068A12.054,12.054,0,0,0,82.125,9.125c-.152,0-.285.038-.418.038a12.143,12.143,0,0,0-23.915,3V83.646A13.655,13.655,0,0,0,84.406,87.98a12.889,12.889,0,0,0,2.281.228,13.679,13.679,0,0,0,13.688-13.687,13.93,13.93,0,0,0-.266-2.68A15.208,15.208,0,0,0,109.5,57.792Z" stroke="none"/>
    <path d="M 39.54166412353516 3 C 37.46904754638672 3 35.52044677734375 3.676750183105469 33.90653228759766 4.957069396972656 C 32.33760070800781 6.201698303222656 31.19858551025391 7.959938049316406 30.69927978515625 9.907882690429688 L 30.12126922607422 12.16301727294922 L 27.79323577880859 12.16301727294922 C 27.56327819824219 12.16301727294922 27.3746337890625 12.14280700683594 27.24652862548828 12.12588500976562 C 22.2509765625 12.19484710693359 18.20833587646484 16.28003692626953 18.20833587646484 21.29166412353516 C 18.20833587646484 21.94062042236328 18.28820037841797 22.59640502929688 18.44570159912109 23.24079895019531 L 19.05833435058594 25.74718475341797 L 16.67183685302734 26.72793579101562 C 14.45043182373047 27.64085388183594 12.55889892578125 29.17185211181641 11.20169830322266 31.15543365478516 C 9.815849304199219 33.18091583251953 9.083335876464844 35.55493545532227 9.083335876464844 38.02083587646484 C 9.083335876464844 39.79316711425781 9.514396667480469 41.5877685546875 10.36456298828125 43.35478591918945 L 11.57313537597656 45.86668395996094 L 9.1566162109375 47.25618362426758 C 7.314399719238281 48.31545257568359 5.771514892578125 49.82760238647461 4.694786071777344 51.629150390625 C 3.586051940917969 53.48421859741211 3 55.61518478393555 3 57.79166793823242 C 3 60.25075149536133 3.7288818359375 62.62090301513672 5.10784912109375 64.64588928222656 C 6.457199096679688 66.62738037109375 8.334983825683594 68.15663146972656 10.53820037841797 69.06831359863281 L 12.80674743652344 70.00703430175781 L 12.33531951904297 72.41643524169922 C 12.19577026367188 73.12969970703125 12.125 73.83771514892578 12.125 74.52083587646484 C 12.125 77.37882995605469 13.23580169677734 80.0635986328125 15.25276947021484 82.08056640625 C 17.26972961425781 84.0975341796875 19.95449829101562 85.20833587646484 22.8125 85.20833587646484 C 23.31953430175781 85.20833587646484 23.87599945068359 85.15083312988281 24.56371307373047 85.02740478515625 L 27.11074829101562 84.57019805908203 L 27.93679809570312 87.02255249023438 C 28.64973449707031 89.13908386230469 29.97091674804688 90.95560455322266 31.75748443603516 92.27571868896484 C 33.57924652099609 93.62181854248047 35.74508666992188 94.33333587646484 38.02083587646484 94.33333587646484 C 40.87882995605469 94.33333587646484 43.5635986328125 93.2225341796875 45.58056640625 91.20556640625 C 47.5975341796875 89.1885986328125 48.70833206176758 86.50383758544922 48.70833206176758 83.64583587646484 L 48.70833206176758 12.16666412353516 C 48.70833206176758 7.112152099609375 44.59618377685547 3 39.54166412353516 3 M 69.95832824707031 3 C 64.90381622314453 3 60.79166793823242 7.112152099609375 60.79166793823242 12.16666412353516 L 60.79166793823242 83.64583587646484 C 60.79166793823242 86.50383758544922 61.9024658203125 89.1885986328125 63.91943359375 91.20556640625 C 65.9364013671875 93.2225341796875 68.62117004394531 94.33333587646484 71.47917175292969 94.33333587646484 C 73.75489807128906 94.33333587646484 75.92073059082031 93.62181854248047 77.74250030517578 92.27571868896484 C 79.52908325195312 90.95560455322266 80.85026550292969 89.13908386230469 81.56320190429688 87.02255249023438 L 82.38926696777344 84.57019805908203 L 84.936279296875 85.02740478515625 C 85.62398529052734 85.15083312988281 86.18045043945312 85.20833587646484 86.6875 85.20833587646484 C 89.54550170898438 85.20833587646484 92.23027038574219 84.0975341796875 94.24723052978516 82.08056640625 C 96.26419830322266 80.0635986328125 97.375 77.37882995605469 97.375 74.52083587646484 C 97.375 73.83771514892578 97.30422973632812 73.12969970703125 97.16468048095703 72.41643524169922 L 96.69325256347656 70.00703430175781 L 98.96179962158203 69.06831359863281 C 101.1650161743164 68.15663146972656 103.0428009033203 66.62738037109375 104.3921508789062 64.64588928222656 C 105.7711181640625 62.62090301513672 106.5 60.25075149536133 106.5 57.79166793823242 C 106.5 55.61518478393555 105.913948059082 53.48421859741211 104.8052139282227 51.629150390625 C 103.7284851074219 49.82760238647461 102.1856002807617 48.31545257568359 100.3433837890625 47.25618362426758 L 97.90831756591797 45.85601806640625 L 99.14543151855469 43.33420181274414 C 99.98896789550781 41.61468505859375 100.4166641235352 39.82699966430664 100.4166641235352 38.02083587646484 C 100.4166641235352 35.55493545532227 99.68415069580078 33.18091583251953 98.29830169677734 31.15543365478516 C 96.94110107421875 29.17185211181641 95.04955291748047 27.64085388183594 92.82814788818359 26.72793579101562 L 90.49198150634766 25.76786804199219 L 91.03993225097656 23.30228424072266 C 91.20932006835938 22.54006958007812 91.29166412353516 21.88240051269531 91.29166412353516 21.29166412353516 C 91.29166412353516 16.27756500244141 87.24461364746094 12.19081878662109 82.24566650390625 12.12578582763672 C 82.1212158203125 12.14210510253906 81.9322509765625 12.16301727294922 81.70676422119141 12.16301727294922 L 79.37873077392578 12.16301727294922 L 78.80072021484375 9.907882690429688 C 78.30141448974609 7.959938049316406 77.16239929199219 6.201698303222656 75.59346771240234 4.957069396972656 C 73.97955322265625 3.676750183105469 72.03094482421875 3 69.95832824707031 3 M 39.54166412353516 0 C 46.25234985351562 0 51.70833206176758 5.455986022949219 51.70833206176758 12.16666412353516 L 51.70833206176758 83.64583587646484 C 51.70833206176758 91.21198272705078 45.58698272705078 97.33333587646484 38.02083587646484 97.33333587646484 C 31.97551727294922 97.33333587646484 26.91874694824219 93.39817047119141 25.09375 87.98020172119141 C 24.35233306884766 88.11328125 23.59193420410156 88.20833587646484 22.8125 88.20833587646484 C 15.24635314941406 88.20833587646484 9.125 82.08696746826172 9.125 74.52083587646484 C 9.125 73.60833740234375 9.220046997070312 72.71483612060547 9.391151428222656 71.84037017822266 C 3.878135681152344 69.55912017822266 0 64.12213134765625 0 57.79166793823242 C 0 52.14556884765625 3.098701477050781 47.27890014648438 7.661201477050781 44.65546798706055 C 6.691665649414062 42.6403694152832 6.083335876464844 40.41615295410156 6.083335876464844 38.02083587646484 C 6.083335876464844 31.67134857177734 9.98046875 26.23436737060547 15.53150177001953 23.95311737060547 C 15.32240295410156 23.09764862060547 15.20833587646484 22.20417022705078 15.20833587646484 21.29166412353516 C 15.20833587646484 14.58098602294922 20.66431427001953 9.125 27.375 9.125 C 27.52708435058594 9.125 27.64115142822266 9.163017272949219 27.79323577880859 9.163017272949219 C 29.14296722412109 3.897132873535156 33.85755157470703 0 39.54166412353516 0 Z M 69.95832824707031 0 C 75.64244842529297 0 80.35703277587891 3.897132873535156 81.70676422119141 9.163017272949219 C 81.83985137939453 9.163017272949219 81.97291564941406 9.125 82.125 9.125 C 88.83568572998047 9.125 94.29166412353516 14.58098602294922 94.29166412353516 21.29166412353516 C 94.29166412353516 22.20417022705078 94.15859985351562 23.09764862060547 93.96848297119141 23.95311737060547 C 99.51953125 26.23436737060547 103.4166641235352 31.67134857177734 103.4166641235352 38.02083587646484 C 103.4166641235352 40.41615295410156 102.8273315429688 42.6403694152832 101.8387985229492 44.65546798706055 C 106.4012985229492 47.27890014648438 109.5 52.14556884765625 109.5 57.79166793823242 C 109.5 64.12213134765625 105.6218643188477 69.55912017822266 100.1088485717773 71.84037017822266 C 100.2799530029297 72.71483612060547 100.375 73.60833740234375 100.375 74.52083587646484 C 100.375 82.08696746826172 94.25364685058594 88.20833587646484 86.6875 88.20833587646484 C 85.90806579589844 88.20833587646484 85.14765167236328 88.11328125 84.40625 87.98020172119141 C 82.58125305175781 93.39817047119141 77.52446746826172 97.33333587646484 71.47917175292969 97.33333587646484 C 63.91301727294922 97.33333587646484 57.79166793823242 91.21198272705078 57.79166793823242 83.64583587646484 L 57.79166793823242 12.16666412353516 C 57.79166793823242 5.436981201171875 63.24765014648438 0 69.95832824707031 0 Z" stroke="none" fill="#fff"/>
  </g>
</svg>
