<svg xmlns="http://www.w3.org/2000/svg" width="30" height="30" viewBox="0 0 30 30">
  <g id="linkedin-icon-gray-30px" transform="translate(-0.49)">
    <rect id="Rectangle" width="30" height="30" rx="3" transform="translate(0.49)" fill="#383838"/>
    <path id="in" d="M25.873,28.413v10.83h-3.6V28.413Zm.24-3.33a1.66,1.66,0,0,1-.54,1.32,2.035,2.035,0,0,1-1.47.54h-.03a1.965,1.965,0,0,1-1.44-.54,1.744,1.744,0,0,1-.54-1.32,1.792,1.792,0,0,1,.57-1.35,2.171,2.171,0,0,1,1.47-.54,1.965,1.965,0,0,1,1.44.54,1.88,1.88,0,0,1,.54,1.35Zm12.72,7.95v6.21h-3.57v-5.79a3.162,3.162,0,0,0-.45-1.8,1.554,1.554,0,0,0-1.38-.66,1.754,1.754,0,0,0-1.14.39,2.364,2.364,0,0,0-.69.93,2.9,2.9,0,0,0-.12.87v6.03h-3.6c0-2.91.03-5.25.03-7.05v-3.75h3.6v1.56h-.03a2.853,2.853,0,0,1,.45-.6,3.859,3.859,0,0,1,.63-.57,2.629,2.629,0,0,1,.96-.48,4.568,4.568,0,0,1,1.26-.18,3.9,3.9,0,0,1,3,1.23A5.747,5.747,0,0,1,38.833,33.033Z" transform="translate(-14.601 -16.191)" fill="#fff"/>
  </g>
</svg>
