<svg xmlns="http://www.w3.org/2000/svg" width="30" height="30" viewBox="0 0 30 30">
  <g id="location-icon-30px" transform="translate(-1112 -5659)">
    <rect id="Bg_Supp." data-name="Bg Supp." width="30" height="30" transform="translate(1112 5659)" fill="#f5f5f5" opacity="0"/>
    <path id="location-icon" d="M14.56,2A10.572,10.572,0,0,0,4,12.56c0,4.3,3.119,7.865,6.423,11.641,1.045,1.2,2.128,2.433,3.092,3.684a1.32,1.32,0,0,0,2.091,0c.964-1.251,2.046-2.488,3.092-3.684C22,20.425,25.12,16.857,25.12,12.56A10.572,10.572,0,0,0,14.56,2Zm0,14.52a3.96,3.96,0,1,1,3.96-3.96A3.96,3.96,0,0,1,14.56,16.52Z" transform="translate(1112.44 5658.8)" fill="#363636"/>
  </g>
</svg>
