<svg xmlns="http://www.w3.org/2000/svg" width="30" height="30" viewBox="0 0 30 30">
  <g id="thread-icon-gray-30px" transform="translate(0.323)">
    <rect id="Rectangle" width="30" height="30" rx="3" transform="translate(-0.323)" fill="#383838"/>
    <g id="Layer_1" data-name="Layer 1" transform="translate(6.449 5.571)">
      <g id="Socila_Media" data-name="Socila Media">
        <path id="Path_319" data-name="Path 319" d="M13.137,9.094c-.087-.043-.174-.078-.26-.113C12.729,6.187,11.2,4.59,8.642,4.573H8.608a4.144,4.144,0,0,0-3.592,1.84l1.406.963A2.5,2.5,0,0,1,8.6,6.3h.026a2.375,2.375,0,0,1,1.892.729,2.816,2.816,0,0,1,.6,1.432,10.455,10.455,0,0,0-2.421-.113c-2.438.139-4,1.562-3.9,3.532A3.034,3.034,0,0,0,6.2,14.3a4.328,4.328,0,0,0,2.612.659,3.853,3.853,0,0,0,2.968-1.44A5.336,5.336,0,0,0,12.8,10.872,3.078,3.078,0,0,1,14.1,12.3a3.548,3.548,0,0,1-.876,3.922A6.089,6.089,0,0,1,8.573,17.9a6.343,6.343,0,0,1-5.241-2.221A9.409,9.409,0,0,1,1.683,9.822,9.409,9.409,0,0,1,3.332,3.965,6.343,6.343,0,0,1,8.573,1.744a6.593,6.593,0,0,1,5.336,2.23,7.266,7.266,0,0,1,1.31,2.673L16.868,6.2a9.012,9.012,0,0,0-1.657-3.341A8.089,8.089,0,0,0,8.59,0H8.582a7.949,7.949,0,0,0-6.56,2.872A11.147,11.147,0,0,0,0,9.805H0v.017a11.147,11.147,0,0,0,2.022,6.933,7.974,7.974,0,0,0,6.56,2.872H8.59a7.691,7.691,0,0,0,5.831-2.169A5.314,5.314,0,0,0,15.662,11.6a5.039,5.039,0,0,0-2.525-2.508ZM8.729,13.232c-1.067.061-2.178-.416-2.23-1.449-.043-.764.538-1.605,2.3-1.709.2-.009.4-.017.59-.017a8.234,8.234,0,0,1,1.779.182c-.2,2.525-1.388,2.933-2.43,2.994Z" fill="#fff"/>
      </g>
    </g>
  </g>
</svg>
